<?xml version="1.0" standalone="no"?>
<!DOCTYPE svg PUBLIC "-//W3C//DTD SVG 20010904//EN"
 "http://www.w3.org/TR/2001/REC-SVG-20010904/DTD/svg10.dtd">
<svg version="1.0" xmlns="http://www.w3.org/2000/svg"
 width="500.000000pt" height="500.000000pt" viewBox="0 0 500.000000 500.000000"
 preserveAspectRatio="xMidYMid meet">
<metadata>
Created by potrace 1.14, written by Peter Selinger 2001-2017
</metadata>
<g transform="translate(0.000000,500.000000) scale(0.100000,-0.100000)"
fill="#000000" stroke="none">
<path d="M0 2500 l0 -2500 2500 0 2500 0 0 2500 0 2500 -2500 0 -2500 0 0
-2500z m2713 1652 l207 -207 -210 -210 -210 -210 -210 210 -210 210 207 207
c114 115 210 208 213 208 3 0 99 -93 213 -208z m-480 -480 l207 -207 -210
-210 -210 -210 -210 210 -210 210 207 207 c114 115 210 208 213 208 3 0 99
-93 213 -208z m960 0 l207 -207 -210 -210 -210 -210 -210 210 -210 210 207
207 c114 115 210 208 213 208 3 0 99 -93 213 -208z m-1448 -902 l-210 -210
-210 210 -210 210 210 210 210 210 210 -210 210 -210 -210 -210z m968 422
l207 -207 -210 -210 -210 -210 -210 210 -210 210 207 207 c114 115 210 208
213 208 3 0 99 -93 213 -208z m967 -417 c-113 -113 -209 -205 -215 -205 -6 0
-102 92 -215 205 l-205 205 210 210 210 210 210 -210 210 -210 -205 -205z
m-2415 -485 l-210 -210 -210 210 -210 210 210 210 210 210 210 -210 210 -210
-210 -210z m960 0 l-210 -210 -210 210 -210 210 210 210 210 210 210 -210 210
-210 -210 -210z m970 0 l-210 -210 -210 210 -210 210 210 210 210 210 210
-210 210 -210 -210 -210z m960 0 l-210 -210 -210 210 -210 210 210 210 210
210 210 -210 210 -210 -210 -210z"/>
</g>
</svg>
